<svg xmlns="http://www.w3.org/2000/svg" enable-background="new 0 0 512 512" viewBox="0 0 512 512" id="6">
  <path d="M412.122,157.122L412.122,157.122C412.122,70.898,342.224,1,256,1h0C169.776,1,99.878,70.898,99.878,157.122v197.755
			l0.092,0.092C102.673,441.615,171.412,511,255.827,511c86.128,0,155.949-72.228,155.949-161.327
			c0-89.098-69.821-161.327-155.949-161.327c-30.546,0-59.035,9.093-83.092,24.794v-56.018c0-45.986,37.279-83.265,83.265-83.265h0
			c45.986,0,83.265,37.279,83.265,83.265v0H412.122z M255.826,261.204c45.817,0,83.092,39.687,83.092,88.469
			c0,48.782-37.275,88.469-83.092,88.469c-45.817,0-83.092-39.687-83.092-88.469C172.735,300.891,210.009,261.204,255.826,261.204z"></path>
</svg>
