<svg xmlns="http://www.w3.org/2000/svg" viewBox="0 0 32 32" id="target">
  <path d="M24.4,12.706A10.865,10.865,0,0,1,25.5,17.5a11,11,0,1,1-11-11,10.9,10.9,0,0,1,4.4.919,1,1,0,1,1-.8,1.832A8.907,8.907,0,0,0,14.5,8.5a9,9,0,1,0,9,9,8.9,8.9,0,0,0-.9-3.919,1,1,0,1,1,1.8-.875ZM14.5,14.5a1,1,0,0,0,0-2,5,5,0,1,0,5,5,1,1,0,0,0-2,0,3,3,0,1,1-3-3ZM29.949,7.707l-2.828,2.829a.994.994,0,0,1-.9.273l-3.011-.6-8,8a1,1,0,0,1-1.414-1.414l8-8-.6-3.01a1,1,0,0,1,.274-.9L24.293,2.05a1,1,0,0,1,1.6.26l1.264,2.531,2.53,1.264a1,1,0,0,1,.26,1.6Zm-2.4-.433L25.967,6.48a.987.987,0,0,1-.447-.447l-.794-1.587L23.258,5.915l.471,2.356,2.356.472Z"></path>
</svg>
